<mxfile host="app.diagrams.net" agent="Mozilla/5.0 (Windows NT 10.0; Win64; x64) AppleWebKit/537.36 (KHTML, like Gecko) Chrome/139.0.0.0 Safari/537.36" version="28.2.0">
  <diagram name="PÃ¡gina-1" id="vlV-Qh6X_c324FIrE44r">
    <mxGraphModel grid="1" page="1" gridSize="10" guides="1" tooltips="1" connect="1" arrows="1" fold="1" pageScale="1" pageWidth="1169" pageHeight="1654" math="0" shadow="0">
      <root>
        <mxCell id="0" />
        <mxCell id="1" parent="0" />
        <mxCell id="enoHgNi0ZjV8ggmhb0cH-23" value="" style="endArrow=none;html=1;rounded=0;" edge="1" parent="1">
          <mxGeometry width="50" height="50" relative="1" as="geometry">
            <mxPoint x="1169" y="199.5" as="sourcePoint" />
            <mxPoint x="1229" y="199.5" as="targetPoint" />
          </mxGeometry>
        </mxCell>
        <mxCell id="enoHgNi0ZjV8ggmhb0cH-22" value="" style="endArrow=none;html=1;rounded=0;" edge="1" parent="1">
          <mxGeometry width="50" height="50" relative="1" as="geometry">
            <mxPoint x="1050" y="199.5" as="sourcePoint" />
            <mxPoint x="1110" y="199.5" as="targetPoint" />
          </mxGeometry>
        </mxCell>
        <mxCell id="enoHgNi0ZjV8ggmhb0cH-21" value="" style="endArrow=none;html=1;rounded=0;" edge="1" parent="1">
          <mxGeometry width="50" height="50" relative="1" as="geometry">
            <mxPoint x="880" y="199.5" as="sourcePoint" />
            <mxPoint x="940" y="199.5" as="targetPoint" />
          </mxGeometry>
        </mxCell>
        <mxCell id="enoHgNi0ZjV8ggmhb0cH-20" value="" style="endArrow=none;html=1;rounded=0;" edge="1" parent="1">
          <mxGeometry width="50" height="50" relative="1" as="geometry">
            <mxPoint x="760" y="199.5" as="sourcePoint" />
            <mxPoint x="820" y="199.5" as="targetPoint" />
          </mxGeometry>
        </mxCell>
        <mxCell id="enoHgNi0ZjV8ggmhb0cH-19" value="" style="endArrow=none;html=1;rounded=0;" edge="1" parent="1">
          <mxGeometry width="50" height="50" relative="1" as="geometry">
            <mxPoint x="585" y="199.5" as="sourcePoint" />
            <mxPoint x="645" y="199.5" as="targetPoint" />
          </mxGeometry>
        </mxCell>
        <mxCell id="enoHgNi0ZjV8ggmhb0cH-18" value="" style="endArrow=none;html=1;rounded=0;" edge="1" parent="1">
          <mxGeometry width="50" height="50" relative="1" as="geometry">
            <mxPoint x="460" y="199.5" as="sourcePoint" />
            <mxPoint x="520" y="199.5" as="targetPoint" />
          </mxGeometry>
        </mxCell>
        <mxCell id="enoHgNi0ZjV8ggmhb0cH-7" value="&lt;b&gt;a la&amp;nbsp;&lt;/b&gt;" style="rhombus;whiteSpace=wrap;html=1;shadow=1;rounded=1;" vertex="1" parent="1">
          <mxGeometry x="510" y="160" width="80" height="80" as="geometry" />
        </mxCell>
        <mxCell id="enoHgNi0ZjV8ggmhb0cH-17" value="" style="endArrow=none;html=1;rounded=0;" edge="1" parent="1">
          <mxGeometry width="50" height="50" relative="1" as="geometry">
            <mxPoint x="280" y="199.5" as="sourcePoint" />
            <mxPoint x="340" y="199.5" as="targetPoint" />
          </mxGeometry>
        </mxCell>
        <mxCell id="enoHgNi0ZjV8ggmhb0cH-16" value="" style="endArrow=none;html=1;rounded=0;" edge="1" parent="1">
          <mxGeometry width="50" height="50" relative="1" as="geometry">
            <mxPoint x="155" y="199.5" as="sourcePoint" />
            <mxPoint x="215" y="199.5" as="targetPoint" />
          </mxGeometry>
        </mxCell>
        <mxCell id="enoHgNi0ZjV8ggmhb0cH-1" value="&lt;b&gt;cliente&lt;/b&gt;" style="rounded=1;whiteSpace=wrap;html=1;shadow=1;" vertex="1" parent="1">
          <mxGeometry x="50" y="170" width="120" height="60" as="geometry" />
        </mxCell>
        <mxCell id="enoHgNi0ZjV8ggmhb0cH-2" value="&lt;b&gt;pedido&lt;/b&gt;" style="rounded=1;whiteSpace=wrap;html=1;shadow=1;" vertex="1" parent="1">
          <mxGeometry x="340" y="170" width="120" height="60" as="geometry" />
        </mxCell>
        <mxCell id="enoHgNi0ZjV8ggmhb0cH-3" value="&lt;b&gt;detalle_pedido&lt;/b&gt;" style="rounded=1;whiteSpace=wrap;html=1;shadow=1;" vertex="1" parent="1">
          <mxGeometry x="940" y="170" width="120" height="60" as="geometry" />
        </mxCell>
        <mxCell id="enoHgNi0ZjV8ggmhb0cH-4" value="&lt;b&gt;mesa&lt;/b&gt;" style="rounded=1;whiteSpace=wrap;html=1;shadow=1;" vertex="1" parent="1">
          <mxGeometry x="640" y="170" width="120" height="60" as="geometry" />
        </mxCell>
        <mxCell id="enoHgNi0ZjV8ggmhb0cH-5" value="&lt;b&gt;plato&lt;/b&gt;" style="rounded=1;whiteSpace=wrap;html=1;shadow=1;" vertex="1" parent="1">
          <mxGeometry x="1230" y="170" width="120" height="60" as="geometry" />
        </mxCell>
        <mxCell id="enoHgNi0ZjV8ggmhb0cH-6" value="&lt;b&gt;hace&lt;/b&gt;" style="rhombus;whiteSpace=wrap;html=1;shadow=1;rounded=1;" vertex="1" parent="1">
          <mxGeometry x="210" y="160" width="80" height="80" as="geometry" />
        </mxCell>
        <mxCell id="enoHgNi0ZjV8ggmhb0cH-8" value="&lt;b&gt;tiene&lt;/b&gt;" style="rhombus;whiteSpace=wrap;html=1;shadow=1;rounded=1;" vertex="1" parent="1">
          <mxGeometry x="810" y="160" width="80" height="80" as="geometry" />
        </mxCell>
        <mxCell id="enoHgNi0ZjV8ggmhb0cH-9" value="&lt;b&gt;contiene&lt;/b&gt;" style="rhombus;whiteSpace=wrap;html=1;shadow=1;rounded=1;" vertex="1" parent="1">
          <mxGeometry x="1100" y="160" width="80" height="80" as="geometry" />
        </mxCell>
        <mxCell id="enoHgNi0ZjV8ggmhb0cH-10" value="id_cliente" style="ellipse;whiteSpace=wrap;html=1;" vertex="1" parent="1">
          <mxGeometry x="16" y="50" width="90" height="60" as="geometry" />
        </mxCell>
        <mxCell id="enoHgNi0ZjV8ggmhb0cH-11" value="nombre" style="ellipse;whiteSpace=wrap;html=1;" vertex="1" parent="1">
          <mxGeometry x="110" y="50" width="90" height="60" as="geometry" />
        </mxCell>
        <mxCell id="enoHgNi0ZjV8ggmhb0cH-12" value="telefono" style="ellipse;whiteSpace=wrap;html=1;" vertex="1" parent="1">
          <mxGeometry x="65" y="290" width="90" height="60" as="geometry" />
        </mxCell>
        <mxCell id="enoHgNi0ZjV8ggmhb0cH-13" value="" style="endArrow=none;html=1;rounded=0;" edge="1" parent="1">
          <mxGeometry width="50" height="50" relative="1" as="geometry">
            <mxPoint x="65" y="170" as="sourcePoint" />
            <mxPoint x="65" y="110" as="targetPoint" />
          </mxGeometry>
        </mxCell>
        <mxCell id="enoHgNi0ZjV8ggmhb0cH-14" value="" style="endArrow=none;html=1;rounded=0;" edge="1" parent="1">
          <mxGeometry width="50" height="50" relative="1" as="geometry">
            <mxPoint x="154" y="170" as="sourcePoint" />
            <mxPoint x="154" y="110" as="targetPoint" />
          </mxGeometry>
        </mxCell>
        <mxCell id="enoHgNi0ZjV8ggmhb0cH-15" value="" style="endArrow=none;html=1;rounded=0;" edge="1" parent="1">
          <mxGeometry width="50" height="50" relative="1" as="geometry">
            <mxPoint x="109" y="290" as="sourcePoint" />
            <mxPoint x="109" y="230" as="targetPoint" />
          </mxGeometry>
        </mxCell>
        <mxCell id="enoHgNi0ZjV8ggmhb0cH-24" value="id_pedido" style="ellipse;whiteSpace=wrap;html=1;" vertex="1" parent="1">
          <mxGeometry x="306" y="50" width="90" height="60" as="geometry" />
        </mxCell>
        <mxCell id="enoHgNi0ZjV8ggmhb0cH-25" value="id_cliente" style="ellipse;whiteSpace=wrap;html=1;" vertex="1" parent="1">
          <mxGeometry x="400" y="50" width="90" height="60" as="geometry" />
        </mxCell>
        <mxCell id="enoHgNi0ZjV8ggmhb0cH-26" value="id_mesa" style="ellipse;whiteSpace=wrap;html=1;" vertex="1" parent="1">
          <mxGeometry x="306" y="290" width="90" height="60" as="geometry" />
        </mxCell>
        <mxCell id="enoHgNi0ZjV8ggmhb0cH-27" value="fecha" style="ellipse;whiteSpace=wrap;html=1;" vertex="1" parent="1">
          <mxGeometry x="400" y="290" width="91" height="60" as="geometry" />
        </mxCell>
        <mxCell id="enoHgNi0ZjV8ggmhb0cH-28" value="" style="endArrow=none;html=1;rounded=0;" edge="1" parent="1">
          <mxGeometry width="50" height="50" relative="1" as="geometry">
            <mxPoint x="360" y="290" as="sourcePoint" />
            <mxPoint x="360" y="230" as="targetPoint" />
          </mxGeometry>
        </mxCell>
        <mxCell id="enoHgNi0ZjV8ggmhb0cH-29" value="" style="endArrow=none;html=1;rounded=0;" edge="1" parent="1">
          <mxGeometry width="50" height="50" relative="1" as="geometry">
            <mxPoint x="444.5" y="290" as="sourcePoint" />
            <mxPoint x="444.5" y="230" as="targetPoint" />
          </mxGeometry>
        </mxCell>
        <mxCell id="enoHgNi0ZjV8ggmhb0cH-30" value="" style="endArrow=none;html=1;rounded=0;" edge="1" parent="1">
          <mxGeometry width="50" height="50" relative="1" as="geometry">
            <mxPoint x="360" y="170" as="sourcePoint" />
            <mxPoint x="360" y="110" as="targetPoint" />
          </mxGeometry>
        </mxCell>
        <mxCell id="enoHgNi0ZjV8ggmhb0cH-31" value="" style="endArrow=none;html=1;rounded=0;" edge="1" parent="1">
          <mxGeometry width="50" height="50" relative="1" as="geometry">
            <mxPoint x="444.5" y="170" as="sourcePoint" />
            <mxPoint x="444.5" y="110" as="targetPoint" />
          </mxGeometry>
        </mxCell>
        <mxCell id="enoHgNi0ZjV8ggmhb0cH-32" value="id_mesa" style="ellipse;whiteSpace=wrap;html=1;" vertex="1" parent="1">
          <mxGeometry x="606" y="50" width="91" height="60" as="geometry" />
        </mxCell>
        <mxCell id="enoHgNi0ZjV8ggmhb0cH-33" value="numero_mesa" style="ellipse;whiteSpace=wrap;html=1;" vertex="1" parent="1">
          <mxGeometry x="701" y="50" width="91" height="60" as="geometry" />
        </mxCell>
        <mxCell id="enoHgNi0ZjV8ggmhb0cH-34" value="capacidad" style="ellipse;whiteSpace=wrap;html=1;" vertex="1" parent="1">
          <mxGeometry x="654.5" y="290" width="91" height="60" as="geometry" />
        </mxCell>
        <mxCell id="enoHgNi0ZjV8ggmhb0cH-35" value="" style="endArrow=none;html=1;rounded=0;" edge="1" parent="1">
          <mxGeometry width="50" height="50" relative="1" as="geometry">
            <mxPoint x="697" y="290" as="sourcePoint" />
            <mxPoint x="697" y="230" as="targetPoint" />
          </mxGeometry>
        </mxCell>
        <mxCell id="enoHgNi0ZjV8ggmhb0cH-36" value="" style="endArrow=none;html=1;rounded=0;" edge="1" parent="1">
          <mxGeometry width="50" height="50" relative="1" as="geometry">
            <mxPoint x="654.5" y="170" as="sourcePoint" />
            <mxPoint x="654.5" y="110" as="targetPoint" />
          </mxGeometry>
        </mxCell>
        <mxCell id="enoHgNi0ZjV8ggmhb0cH-37" value="" style="endArrow=none;html=1;rounded=0;" edge="1" parent="1">
          <mxGeometry width="50" height="50" relative="1" as="geometry">
            <mxPoint x="740" y="170" as="sourcePoint" />
            <mxPoint x="740" y="110" as="targetPoint" />
          </mxGeometry>
        </mxCell>
        <mxCell id="enoHgNi0ZjV8ggmhb0cH-38" value="id_detalle" style="ellipse;whiteSpace=wrap;html=1;" vertex="1" parent="1">
          <mxGeometry x="910" y="50" width="91" height="60" as="geometry" />
        </mxCell>
        <mxCell id="enoHgNi0ZjV8ggmhb0cH-39" value="cantidad" style="ellipse;whiteSpace=wrap;html=1;" vertex="1" parent="1">
          <mxGeometry x="1009" y="50" width="91" height="60" as="geometry" />
        </mxCell>
        <mxCell id="enoHgNi0ZjV8ggmhb0cH-40" value="id_pedido" style="ellipse;whiteSpace=wrap;html=1;" vertex="1" parent="1">
          <mxGeometry x="910" y="290" width="91" height="60" as="geometry" />
        </mxCell>
        <mxCell id="enoHgNi0ZjV8ggmhb0cH-41" value="id_plato" style="ellipse;whiteSpace=wrap;html=1;" vertex="1" parent="1">
          <mxGeometry x="1009" y="290" width="91" height="60" as="geometry" />
        </mxCell>
        <mxCell id="enoHgNi0ZjV8ggmhb0cH-42" value="" style="endArrow=none;html=1;rounded=0;" edge="1" parent="1">
          <mxGeometry width="50" height="50" relative="1" as="geometry">
            <mxPoint x="960" y="290" as="sourcePoint" />
            <mxPoint x="960" y="230" as="targetPoint" />
          </mxGeometry>
        </mxCell>
        <mxCell id="enoHgNi0ZjV8ggmhb0cH-43" value="" style="endArrow=none;html=1;rounded=0;" edge="1" parent="1">
          <mxGeometry width="50" height="50" relative="1" as="geometry">
            <mxPoint x="1040" y="290" as="sourcePoint" />
            <mxPoint x="1040" y="230" as="targetPoint" />
          </mxGeometry>
        </mxCell>
        <mxCell id="enoHgNi0ZjV8ggmhb0cH-44" value="" style="endArrow=none;html=1;rounded=0;" edge="1" parent="1">
          <mxGeometry width="50" height="50" relative="1" as="geometry">
            <mxPoint x="960" y="170" as="sourcePoint" />
            <mxPoint x="960" y="110" as="targetPoint" />
          </mxGeometry>
        </mxCell>
        <mxCell id="enoHgNi0ZjV8ggmhb0cH-45" value="" style="endArrow=none;html=1;rounded=0;" edge="1" parent="1">
          <mxGeometry width="50" height="50" relative="1" as="geometry">
            <mxPoint x="1040" y="170" as="sourcePoint" />
            <mxPoint x="1040" y="110" as="targetPoint" />
          </mxGeometry>
        </mxCell>
        <mxCell id="enoHgNi0ZjV8ggmhb0cH-46" value="id_plato" style="ellipse;whiteSpace=wrap;html=1;" vertex="1" parent="1">
          <mxGeometry x="1200" y="50" width="91" height="60" as="geometry" />
        </mxCell>
        <mxCell id="enoHgNi0ZjV8ggmhb0cH-47" value="nombre" style="ellipse;whiteSpace=wrap;html=1;" vertex="1" parent="1">
          <mxGeometry x="1300" y="50" width="91" height="60" as="geometry" />
        </mxCell>
        <mxCell id="enoHgNi0ZjV8ggmhb0cH-48" value="precio" style="ellipse;whiteSpace=wrap;html=1;" vertex="1" parent="1">
          <mxGeometry x="1244.5" y="290" width="91" height="60" as="geometry" />
        </mxCell>
        <mxCell id="enoHgNi0ZjV8ggmhb0cH-49" value="" style="endArrow=none;html=1;rounded=0;" edge="1" parent="1">
          <mxGeometry width="50" height="50" relative="1" as="geometry">
            <mxPoint x="1291" y="290" as="sourcePoint" />
            <mxPoint x="1291" y="230" as="targetPoint" />
          </mxGeometry>
        </mxCell>
        <mxCell id="enoHgNi0ZjV8ggmhb0cH-50" value="" style="endArrow=none;html=1;rounded=0;" edge="1" parent="1">
          <mxGeometry width="50" height="50" relative="1" as="geometry">
            <mxPoint x="1250" y="170" as="sourcePoint" />
            <mxPoint x="1250" y="110" as="targetPoint" />
          </mxGeometry>
        </mxCell>
        <mxCell id="enoHgNi0ZjV8ggmhb0cH-51" value="" style="endArrow=none;html=1;rounded=0;" edge="1" parent="1">
          <mxGeometry width="50" height="50" relative="1" as="geometry">
            <mxPoint x="1335.5" y="170" as="sourcePoint" />
            <mxPoint x="1335.5" y="110" as="targetPoint" />
          </mxGeometry>
        </mxCell>
        <mxCell id="enoHgNi0ZjV8ggmhb0cH-52" value="cliente" style="shape=table;startSize=30;container=1;collapsible=1;childLayout=tableLayout;fixedRows=1;rowLines=0;fontStyle=1;align=center;resizeLast=1;html=1;rounded=1;shadow=1;" vertex="1" parent="1">
          <mxGeometry x="40" y="440" width="180" height="120" as="geometry" />
        </mxCell>
        <mxCell id="enoHgNi0ZjV8ggmhb0cH-53" value="" style="shape=tableRow;horizontal=0;startSize=0;swimlaneHead=0;swimlaneBody=0;fillColor=none;collapsible=0;dropTarget=0;points=[[0,0.5],[1,0.5]];portConstraint=eastwest;top=0;left=0;right=0;bottom=1;" vertex="1" parent="enoHgNi0ZjV8ggmhb0cH-52">
          <mxGeometry y="30" width="180" height="30" as="geometry" />
        </mxCell>
        <mxCell id="enoHgNi0ZjV8ggmhb0cH-54" value="PK" style="shape=partialRectangle;connectable=0;fillColor=none;top=0;left=0;bottom=0;right=0;fontStyle=1;overflow=hidden;whiteSpace=wrap;html=1;" vertex="1" parent="enoHgNi0ZjV8ggmhb0cH-53">
          <mxGeometry width="30" height="30" as="geometry">
            <mxRectangle width="30" height="30" as="alternateBounds" />
          </mxGeometry>
        </mxCell>
        <mxCell id="enoHgNi0ZjV8ggmhb0cH-55" value="id_cliente" style="shape=partialRectangle;connectable=0;fillColor=none;top=0;left=0;bottom=0;right=0;align=left;spacingLeft=6;fontStyle=5;overflow=hidden;whiteSpace=wrap;html=1;" vertex="1" parent="enoHgNi0ZjV8ggmhb0cH-53">
          <mxGeometry x="30" width="150" height="30" as="geometry">
            <mxRectangle width="150" height="30" as="alternateBounds" />
          </mxGeometry>
        </mxCell>
        <mxCell id="enoHgNi0ZjV8ggmhb0cH-56" value="" style="shape=tableRow;horizontal=0;startSize=0;swimlaneHead=0;swimlaneBody=0;fillColor=none;collapsible=0;dropTarget=0;points=[[0,0.5],[1,0.5]];portConstraint=eastwest;top=0;left=0;right=0;bottom=0;" vertex="1" parent="enoHgNi0ZjV8ggmhb0cH-52">
          <mxGeometry y="60" width="180" height="30" as="geometry" />
        </mxCell>
        <mxCell id="enoHgNi0ZjV8ggmhb0cH-57" value="" style="shape=partialRectangle;connectable=0;fillColor=none;top=0;left=0;bottom=0;right=0;editable=1;overflow=hidden;whiteSpace=wrap;html=1;" vertex="1" parent="enoHgNi0ZjV8ggmhb0cH-56">
          <mxGeometry width="30" height="30" as="geometry">
            <mxRectangle width="30" height="30" as="alternateBounds" />
          </mxGeometry>
        </mxCell>
        <mxCell id="enoHgNi0ZjV8ggmhb0cH-58" value="nombre" style="shape=partialRectangle;connectable=0;fillColor=none;top=0;left=0;bottom=0;right=0;align=left;spacingLeft=6;overflow=hidden;whiteSpace=wrap;html=1;" vertex="1" parent="enoHgNi0ZjV8ggmhb0cH-56">
          <mxGeometry x="30" width="150" height="30" as="geometry">
            <mxRectangle width="150" height="30" as="alternateBounds" />
          </mxGeometry>
        </mxCell>
        <mxCell id="enoHgNi0ZjV8ggmhb0cH-59" value="" style="shape=tableRow;horizontal=0;startSize=0;swimlaneHead=0;swimlaneBody=0;fillColor=none;collapsible=0;dropTarget=0;points=[[0,0.5],[1,0.5]];portConstraint=eastwest;top=0;left=0;right=0;bottom=0;" vertex="1" parent="enoHgNi0ZjV8ggmhb0cH-52">
          <mxGeometry y="90" width="180" height="30" as="geometry" />
        </mxCell>
        <mxCell id="enoHgNi0ZjV8ggmhb0cH-60" value="" style="shape=partialRectangle;connectable=0;fillColor=none;top=0;left=0;bottom=0;right=0;editable=1;overflow=hidden;whiteSpace=wrap;html=1;" vertex="1" parent="enoHgNi0ZjV8ggmhb0cH-59">
          <mxGeometry width="30" height="30" as="geometry">
            <mxRectangle width="30" height="30" as="alternateBounds" />
          </mxGeometry>
        </mxCell>
        <mxCell id="enoHgNi0ZjV8ggmhb0cH-61" value="telefono" style="shape=partialRectangle;connectable=0;fillColor=none;top=0;left=0;bottom=0;right=0;align=left;spacingLeft=6;overflow=hidden;whiteSpace=wrap;html=1;" vertex="1" parent="enoHgNi0ZjV8ggmhb0cH-59">
          <mxGeometry x="30" width="150" height="30" as="geometry">
            <mxRectangle width="150" height="30" as="alternateBounds" />
          </mxGeometry>
        </mxCell>
        <mxCell id="enoHgNi0ZjV8ggmhb0cH-65" value="pedido" style="shape=table;startSize=30;container=1;collapsible=1;childLayout=tableLayout;fixedRows=1;rowLines=0;fontStyle=1;align=center;resizeLast=1;html=1;rounded=1;shadow=1;" vertex="1" parent="1">
          <mxGeometry x="290" y="440" width="180" height="150" as="geometry" />
        </mxCell>
        <mxCell id="enoHgNi0ZjV8ggmhb0cH-66" value="" style="shape=tableRow;horizontal=0;startSize=0;swimlaneHead=0;swimlaneBody=0;fillColor=none;collapsible=0;dropTarget=0;points=[[0,0.5],[1,0.5]];portConstraint=eastwest;top=0;left=0;right=0;bottom=1;" vertex="1" parent="enoHgNi0ZjV8ggmhb0cH-65">
          <mxGeometry y="30" width="180" height="30" as="geometry" />
        </mxCell>
        <mxCell id="enoHgNi0ZjV8ggmhb0cH-67" value="PK" style="shape=partialRectangle;connectable=0;fillColor=none;top=0;left=0;bottom=0;right=0;fontStyle=1;overflow=hidden;whiteSpace=wrap;html=1;" vertex="1" parent="enoHgNi0ZjV8ggmhb0cH-66">
          <mxGeometry width="30" height="30" as="geometry">
            <mxRectangle width="30" height="30" as="alternateBounds" />
          </mxGeometry>
        </mxCell>
        <mxCell id="enoHgNi0ZjV8ggmhb0cH-68" value="id_pedido" style="shape=partialRectangle;connectable=0;fillColor=none;top=0;left=0;bottom=0;right=0;align=left;spacingLeft=6;fontStyle=5;overflow=hidden;whiteSpace=wrap;html=1;" vertex="1" parent="enoHgNi0ZjV8ggmhb0cH-66">
          <mxGeometry x="30" width="150" height="30" as="geometry">
            <mxRectangle width="150" height="30" as="alternateBounds" />
          </mxGeometry>
        </mxCell>
        <mxCell id="enoHgNi0ZjV8ggmhb0cH-69" value="" style="shape=tableRow;horizontal=0;startSize=0;swimlaneHead=0;swimlaneBody=0;fillColor=none;collapsible=0;dropTarget=0;points=[[0,0.5],[1,0.5]];portConstraint=eastwest;top=0;left=0;right=0;bottom=0;" vertex="1" parent="enoHgNi0ZjV8ggmhb0cH-65">
          <mxGeometry y="60" width="180" height="30" as="geometry" />
        </mxCell>
        <mxCell id="enoHgNi0ZjV8ggmhb0cH-70" value="&lt;b&gt;FK&lt;/b&gt;" style="shape=partialRectangle;connectable=0;fillColor=none;top=0;left=0;bottom=0;right=0;editable=1;overflow=hidden;whiteSpace=wrap;html=1;" vertex="1" parent="enoHgNi0ZjV8ggmhb0cH-69">
          <mxGeometry width="30" height="30" as="geometry">
            <mxRectangle width="30" height="30" as="alternateBounds" />
          </mxGeometry>
        </mxCell>
        <mxCell id="enoHgNi0ZjV8ggmhb0cH-71" value="id_cliente" style="shape=partialRectangle;connectable=0;fillColor=none;top=0;left=0;bottom=0;right=0;align=left;spacingLeft=6;overflow=hidden;whiteSpace=wrap;html=1;" vertex="1" parent="enoHgNi0ZjV8ggmhb0cH-69">
          <mxGeometry x="30" width="150" height="30" as="geometry">
            <mxRectangle width="150" height="30" as="alternateBounds" />
          </mxGeometry>
        </mxCell>
        <mxCell id="enoHgNi0ZjV8ggmhb0cH-72" value="" style="shape=tableRow;horizontal=0;startSize=0;swimlaneHead=0;swimlaneBody=0;fillColor=none;collapsible=0;dropTarget=0;points=[[0,0.5],[1,0.5]];portConstraint=eastwest;top=0;left=0;right=0;bottom=0;" vertex="1" parent="enoHgNi0ZjV8ggmhb0cH-65">
          <mxGeometry y="90" width="180" height="30" as="geometry" />
        </mxCell>
        <mxCell id="enoHgNi0ZjV8ggmhb0cH-73" value="&lt;b&gt;FK&lt;/b&gt;" style="shape=partialRectangle;connectable=0;fillColor=none;top=0;left=0;bottom=0;right=0;editable=1;overflow=hidden;whiteSpace=wrap;html=1;" vertex="1" parent="enoHgNi0ZjV8ggmhb0cH-72">
          <mxGeometry width="30" height="30" as="geometry">
            <mxRectangle width="30" height="30" as="alternateBounds" />
          </mxGeometry>
        </mxCell>
        <mxCell id="enoHgNi0ZjV8ggmhb0cH-74" value="id_mesa" style="shape=partialRectangle;connectable=0;fillColor=none;top=0;left=0;bottom=0;right=0;align=left;spacingLeft=6;overflow=hidden;whiteSpace=wrap;html=1;" vertex="1" parent="enoHgNi0ZjV8ggmhb0cH-72">
          <mxGeometry x="30" width="150" height="30" as="geometry">
            <mxRectangle width="150" height="30" as="alternateBounds" />
          </mxGeometry>
        </mxCell>
        <mxCell id="enoHgNi0ZjV8ggmhb0cH-75" value="" style="shape=tableRow;horizontal=0;startSize=0;swimlaneHead=0;swimlaneBody=0;fillColor=none;collapsible=0;dropTarget=0;points=[[0,0.5],[1,0.5]];portConstraint=eastwest;top=0;left=0;right=0;bottom=0;" vertex="1" parent="enoHgNi0ZjV8ggmhb0cH-65">
          <mxGeometry y="120" width="180" height="30" as="geometry" />
        </mxCell>
        <mxCell id="enoHgNi0ZjV8ggmhb0cH-76" value="" style="shape=partialRectangle;connectable=0;fillColor=none;top=0;left=0;bottom=0;right=0;editable=1;overflow=hidden;whiteSpace=wrap;html=1;" vertex="1" parent="enoHgNi0ZjV8ggmhb0cH-75">
          <mxGeometry width="30" height="30" as="geometry">
            <mxRectangle width="30" height="30" as="alternateBounds" />
          </mxGeometry>
        </mxCell>
        <mxCell id="enoHgNi0ZjV8ggmhb0cH-77" value="fecha" style="shape=partialRectangle;connectable=0;fillColor=none;top=0;left=0;bottom=0;right=0;align=left;spacingLeft=6;overflow=hidden;whiteSpace=wrap;html=1;" vertex="1" parent="enoHgNi0ZjV8ggmhb0cH-75">
          <mxGeometry x="30" width="150" height="30" as="geometry">
            <mxRectangle width="150" height="30" as="alternateBounds" />
          </mxGeometry>
        </mxCell>
        <mxCell id="enoHgNi0ZjV8ggmhb0cH-78" value="mesa" style="shape=table;startSize=30;container=1;collapsible=1;childLayout=tableLayout;fixedRows=1;rowLines=0;fontStyle=1;align=center;resizeLast=1;html=1;rounded=1;shadow=1;" vertex="1" parent="1">
          <mxGeometry x="540" y="440" width="180" height="120" as="geometry" />
        </mxCell>
        <mxCell id="enoHgNi0ZjV8ggmhb0cH-79" value="" style="shape=tableRow;horizontal=0;startSize=0;swimlaneHead=0;swimlaneBody=0;fillColor=none;collapsible=0;dropTarget=0;points=[[0,0.5],[1,0.5]];portConstraint=eastwest;top=0;left=0;right=0;bottom=1;" vertex="1" parent="enoHgNi0ZjV8ggmhb0cH-78">
          <mxGeometry y="30" width="180" height="30" as="geometry" />
        </mxCell>
        <mxCell id="enoHgNi0ZjV8ggmhb0cH-80" value="PK" style="shape=partialRectangle;connectable=0;fillColor=none;top=0;left=0;bottom=0;right=0;fontStyle=1;overflow=hidden;whiteSpace=wrap;html=1;" vertex="1" parent="enoHgNi0ZjV8ggmhb0cH-79">
          <mxGeometry width="30" height="30" as="geometry">
            <mxRectangle width="30" height="30" as="alternateBounds" />
          </mxGeometry>
        </mxCell>
        <mxCell id="enoHgNi0ZjV8ggmhb0cH-81" value="id_mesa" style="shape=partialRectangle;connectable=0;fillColor=none;top=0;left=0;bottom=0;right=0;align=left;spacingLeft=6;fontStyle=5;overflow=hidden;whiteSpace=wrap;html=1;" vertex="1" parent="enoHgNi0ZjV8ggmhb0cH-79">
          <mxGeometry x="30" width="150" height="30" as="geometry">
            <mxRectangle width="150" height="30" as="alternateBounds" />
          </mxGeometry>
        </mxCell>
        <mxCell id="enoHgNi0ZjV8ggmhb0cH-82" value="" style="shape=tableRow;horizontal=0;startSize=0;swimlaneHead=0;swimlaneBody=0;fillColor=none;collapsible=0;dropTarget=0;points=[[0,0.5],[1,0.5]];portConstraint=eastwest;top=0;left=0;right=0;bottom=0;" vertex="1" parent="enoHgNi0ZjV8ggmhb0cH-78">
          <mxGeometry y="60" width="180" height="30" as="geometry" />
        </mxCell>
        <mxCell id="enoHgNi0ZjV8ggmhb0cH-83" value="" style="shape=partialRectangle;connectable=0;fillColor=none;top=0;left=0;bottom=0;right=0;editable=1;overflow=hidden;whiteSpace=wrap;html=1;" vertex="1" parent="enoHgNi0ZjV8ggmhb0cH-82">
          <mxGeometry width="30" height="30" as="geometry">
            <mxRectangle width="30" height="30" as="alternateBounds" />
          </mxGeometry>
        </mxCell>
        <mxCell id="enoHgNi0ZjV8ggmhb0cH-84" value="numero_mesa" style="shape=partialRectangle;connectable=0;fillColor=none;top=0;left=0;bottom=0;right=0;align=left;spacingLeft=6;overflow=hidden;whiteSpace=wrap;html=1;" vertex="1" parent="enoHgNi0ZjV8ggmhb0cH-82">
          <mxGeometry x="30" width="150" height="30" as="geometry">
            <mxRectangle width="150" height="30" as="alternateBounds" />
          </mxGeometry>
        </mxCell>
        <mxCell id="enoHgNi0ZjV8ggmhb0cH-85" value="" style="shape=tableRow;horizontal=0;startSize=0;swimlaneHead=0;swimlaneBody=0;fillColor=none;collapsible=0;dropTarget=0;points=[[0,0.5],[1,0.5]];portConstraint=eastwest;top=0;left=0;right=0;bottom=0;" vertex="1" parent="enoHgNi0ZjV8ggmhb0cH-78">
          <mxGeometry y="90" width="180" height="30" as="geometry" />
        </mxCell>
        <mxCell id="enoHgNi0ZjV8ggmhb0cH-86" value="" style="shape=partialRectangle;connectable=0;fillColor=none;top=0;left=0;bottom=0;right=0;editable=1;overflow=hidden;whiteSpace=wrap;html=1;" vertex="1" parent="enoHgNi0ZjV8ggmhb0cH-85">
          <mxGeometry width="30" height="30" as="geometry">
            <mxRectangle width="30" height="30" as="alternateBounds" />
          </mxGeometry>
        </mxCell>
        <mxCell id="enoHgNi0ZjV8ggmhb0cH-87" value="capacidad" style="shape=partialRectangle;connectable=0;fillColor=none;top=0;left=0;bottom=0;right=0;align=left;spacingLeft=6;overflow=hidden;whiteSpace=wrap;html=1;" vertex="1" parent="enoHgNi0ZjV8ggmhb0cH-85">
          <mxGeometry x="30" width="150" height="30" as="geometry">
            <mxRectangle width="150" height="30" as="alternateBounds" />
          </mxGeometry>
        </mxCell>
        <mxCell id="enoHgNi0ZjV8ggmhb0cH-91" value="detalle_pedido" style="shape=table;startSize=30;container=1;collapsible=1;childLayout=tableLayout;fixedRows=1;rowLines=0;fontStyle=1;align=center;resizeLast=1;html=1;rounded=1;shadow=1;" vertex="1" parent="1">
          <mxGeometry x="792" y="440" width="180" height="150" as="geometry" />
        </mxCell>
        <mxCell id="enoHgNi0ZjV8ggmhb0cH-92" value="" style="shape=tableRow;horizontal=0;startSize=0;swimlaneHead=0;swimlaneBody=0;fillColor=none;collapsible=0;dropTarget=0;points=[[0,0.5],[1,0.5]];portConstraint=eastwest;top=0;left=0;right=0;bottom=1;" vertex="1" parent="enoHgNi0ZjV8ggmhb0cH-91">
          <mxGeometry y="30" width="180" height="30" as="geometry" />
        </mxCell>
        <mxCell id="enoHgNi0ZjV8ggmhb0cH-93" value="PK" style="shape=partialRectangle;connectable=0;fillColor=none;top=0;left=0;bottom=0;right=0;fontStyle=1;overflow=hidden;whiteSpace=wrap;html=1;" vertex="1" parent="enoHgNi0ZjV8ggmhb0cH-92">
          <mxGeometry width="30" height="30" as="geometry">
            <mxRectangle width="30" height="30" as="alternateBounds" />
          </mxGeometry>
        </mxCell>
        <mxCell id="enoHgNi0ZjV8ggmhb0cH-94" value="id_detalle" style="shape=partialRectangle;connectable=0;fillColor=none;top=0;left=0;bottom=0;right=0;align=left;spacingLeft=6;fontStyle=5;overflow=hidden;whiteSpace=wrap;html=1;" vertex="1" parent="enoHgNi0ZjV8ggmhb0cH-92">
          <mxGeometry x="30" width="150" height="30" as="geometry">
            <mxRectangle width="150" height="30" as="alternateBounds" />
          </mxGeometry>
        </mxCell>
        <mxCell id="enoHgNi0ZjV8ggmhb0cH-95" value="" style="shape=tableRow;horizontal=0;startSize=0;swimlaneHead=0;swimlaneBody=0;fillColor=none;collapsible=0;dropTarget=0;points=[[0,0.5],[1,0.5]];portConstraint=eastwest;top=0;left=0;right=0;bottom=0;" vertex="1" parent="enoHgNi0ZjV8ggmhb0cH-91">
          <mxGeometry y="60" width="180" height="30" as="geometry" />
        </mxCell>
        <mxCell id="enoHgNi0ZjV8ggmhb0cH-96" value="&lt;b&gt;FK&lt;/b&gt;" style="shape=partialRectangle;connectable=0;fillColor=none;top=0;left=0;bottom=0;right=0;editable=1;overflow=hidden;whiteSpace=wrap;html=1;" vertex="1" parent="enoHgNi0ZjV8ggmhb0cH-95">
          <mxGeometry width="30" height="30" as="geometry">
            <mxRectangle width="30" height="30" as="alternateBounds" />
          </mxGeometry>
        </mxCell>
        <mxCell id="enoHgNi0ZjV8ggmhb0cH-97" value="id_pedido" style="shape=partialRectangle;connectable=0;fillColor=none;top=0;left=0;bottom=0;right=0;align=left;spacingLeft=6;overflow=hidden;whiteSpace=wrap;html=1;" vertex="1" parent="enoHgNi0ZjV8ggmhb0cH-95">
          <mxGeometry x="30" width="150" height="30" as="geometry">
            <mxRectangle width="150" height="30" as="alternateBounds" />
          </mxGeometry>
        </mxCell>
        <mxCell id="enoHgNi0ZjV8ggmhb0cH-98" value="" style="shape=tableRow;horizontal=0;startSize=0;swimlaneHead=0;swimlaneBody=0;fillColor=none;collapsible=0;dropTarget=0;points=[[0,0.5],[1,0.5]];portConstraint=eastwest;top=0;left=0;right=0;bottom=0;" vertex="1" parent="enoHgNi0ZjV8ggmhb0cH-91">
          <mxGeometry y="90" width="180" height="30" as="geometry" />
        </mxCell>
        <mxCell id="enoHgNi0ZjV8ggmhb0cH-99" value="&lt;b&gt;FK&lt;/b&gt;" style="shape=partialRectangle;connectable=0;fillColor=none;top=0;left=0;bottom=0;right=0;editable=1;overflow=hidden;whiteSpace=wrap;html=1;" vertex="1" parent="enoHgNi0ZjV8ggmhb0cH-98">
          <mxGeometry width="30" height="30" as="geometry">
            <mxRectangle width="30" height="30" as="alternateBounds" />
          </mxGeometry>
        </mxCell>
        <mxCell id="enoHgNi0ZjV8ggmhb0cH-100" value="id_plato" style="shape=partialRectangle;connectable=0;fillColor=none;top=0;left=0;bottom=0;right=0;align=left;spacingLeft=6;overflow=hidden;whiteSpace=wrap;html=1;" vertex="1" parent="enoHgNi0ZjV8ggmhb0cH-98">
          <mxGeometry x="30" width="150" height="30" as="geometry">
            <mxRectangle width="150" height="30" as="alternateBounds" />
          </mxGeometry>
        </mxCell>
        <mxCell id="enoHgNi0ZjV8ggmhb0cH-101" value="" style="shape=tableRow;horizontal=0;startSize=0;swimlaneHead=0;swimlaneBody=0;fillColor=none;collapsible=0;dropTarget=0;points=[[0,0.5],[1,0.5]];portConstraint=eastwest;top=0;left=0;right=0;bottom=0;" vertex="1" parent="enoHgNi0ZjV8ggmhb0cH-91">
          <mxGeometry y="120" width="180" height="30" as="geometry" />
        </mxCell>
        <mxCell id="enoHgNi0ZjV8ggmhb0cH-102" value="" style="shape=partialRectangle;connectable=0;fillColor=none;top=0;left=0;bottom=0;right=0;editable=1;overflow=hidden;whiteSpace=wrap;html=1;" vertex="1" parent="enoHgNi0ZjV8ggmhb0cH-101">
          <mxGeometry width="30" height="30" as="geometry">
            <mxRectangle width="30" height="30" as="alternateBounds" />
          </mxGeometry>
        </mxCell>
        <mxCell id="enoHgNi0ZjV8ggmhb0cH-103" value="cantidad" style="shape=partialRectangle;connectable=0;fillColor=none;top=0;left=0;bottom=0;right=0;align=left;spacingLeft=6;overflow=hidden;whiteSpace=wrap;html=1;" vertex="1" parent="enoHgNi0ZjV8ggmhb0cH-101">
          <mxGeometry x="30" width="150" height="30" as="geometry">
            <mxRectangle width="150" height="30" as="alternateBounds" />
          </mxGeometry>
        </mxCell>
        <mxCell id="enoHgNi0ZjV8ggmhb0cH-104" value="plato" style="shape=table;startSize=30;container=1;collapsible=1;childLayout=tableLayout;fixedRows=1;rowLines=0;fontStyle=1;align=center;resizeLast=1;html=1;rounded=1;shadow=1;" vertex="1" parent="1">
          <mxGeometry x="1040" y="440" width="180" height="120" as="geometry" />
        </mxCell>
        <mxCell id="enoHgNi0ZjV8ggmhb0cH-105" value="" style="shape=tableRow;horizontal=0;startSize=0;swimlaneHead=0;swimlaneBody=0;fillColor=none;collapsible=0;dropTarget=0;points=[[0,0.5],[1,0.5]];portConstraint=eastwest;top=0;left=0;right=0;bottom=1;" vertex="1" parent="enoHgNi0ZjV8ggmhb0cH-104">
          <mxGeometry y="30" width="180" height="30" as="geometry" />
        </mxCell>
        <mxCell id="enoHgNi0ZjV8ggmhb0cH-106" value="PK" style="shape=partialRectangle;connectable=0;fillColor=none;top=0;left=0;bottom=0;right=0;fontStyle=1;overflow=hidden;whiteSpace=wrap;html=1;" vertex="1" parent="enoHgNi0ZjV8ggmhb0cH-105">
          <mxGeometry width="30" height="30" as="geometry">
            <mxRectangle width="30" height="30" as="alternateBounds" />
          </mxGeometry>
        </mxCell>
        <mxCell id="enoHgNi0ZjV8ggmhb0cH-107" value="id_plato" style="shape=partialRectangle;connectable=0;fillColor=none;top=0;left=0;bottom=0;right=0;align=left;spacingLeft=6;fontStyle=5;overflow=hidden;whiteSpace=wrap;html=1;" vertex="1" parent="enoHgNi0ZjV8ggmhb0cH-105">
          <mxGeometry x="30" width="150" height="30" as="geometry">
            <mxRectangle width="150" height="30" as="alternateBounds" />
          </mxGeometry>
        </mxCell>
        <mxCell id="enoHgNi0ZjV8ggmhb0cH-108" value="" style="shape=tableRow;horizontal=0;startSize=0;swimlaneHead=0;swimlaneBody=0;fillColor=none;collapsible=0;dropTarget=0;points=[[0,0.5],[1,0.5]];portConstraint=eastwest;top=0;left=0;right=0;bottom=0;" vertex="1" parent="enoHgNi0ZjV8ggmhb0cH-104">
          <mxGeometry y="60" width="180" height="30" as="geometry" />
        </mxCell>
        <mxCell id="enoHgNi0ZjV8ggmhb0cH-109" value="" style="shape=partialRectangle;connectable=0;fillColor=none;top=0;left=0;bottom=0;right=0;editable=1;overflow=hidden;whiteSpace=wrap;html=1;" vertex="1" parent="enoHgNi0ZjV8ggmhb0cH-108">
          <mxGeometry width="30" height="30" as="geometry">
            <mxRectangle width="30" height="30" as="alternateBounds" />
          </mxGeometry>
        </mxCell>
        <mxCell id="enoHgNi0ZjV8ggmhb0cH-110" value="nombre" style="shape=partialRectangle;connectable=0;fillColor=none;top=0;left=0;bottom=0;right=0;align=left;spacingLeft=6;overflow=hidden;whiteSpace=wrap;html=1;" vertex="1" parent="enoHgNi0ZjV8ggmhb0cH-108">
          <mxGeometry x="30" width="150" height="30" as="geometry">
            <mxRectangle width="150" height="30" as="alternateBounds" />
          </mxGeometry>
        </mxCell>
        <mxCell id="enoHgNi0ZjV8ggmhb0cH-111" value="" style="shape=tableRow;horizontal=0;startSize=0;swimlaneHead=0;swimlaneBody=0;fillColor=none;collapsible=0;dropTarget=0;points=[[0,0.5],[1,0.5]];portConstraint=eastwest;top=0;left=0;right=0;bottom=0;" vertex="1" parent="enoHgNi0ZjV8ggmhb0cH-104">
          <mxGeometry y="90" width="180" height="30" as="geometry" />
        </mxCell>
        <mxCell id="enoHgNi0ZjV8ggmhb0cH-112" value="" style="shape=partialRectangle;connectable=0;fillColor=none;top=0;left=0;bottom=0;right=0;editable=1;overflow=hidden;whiteSpace=wrap;html=1;" vertex="1" parent="enoHgNi0ZjV8ggmhb0cH-111">
          <mxGeometry width="30" height="30" as="geometry">
            <mxRectangle width="30" height="30" as="alternateBounds" />
          </mxGeometry>
        </mxCell>
        <mxCell id="enoHgNi0ZjV8ggmhb0cH-113" value="precio" style="shape=partialRectangle;connectable=0;fillColor=none;top=0;left=0;bottom=0;right=0;align=left;spacingLeft=6;overflow=hidden;whiteSpace=wrap;html=1;" vertex="1" parent="enoHgNi0ZjV8ggmhb0cH-111">
          <mxGeometry x="30" width="150" height="30" as="geometry">
            <mxRectangle width="150" height="30" as="alternateBounds" />
          </mxGeometry>
        </mxCell>
        <mxCell id="enoHgNi0ZjV8ggmhb0cH-117" value="" style="fontSize=12;html=1;endArrow=ERzeroToMany;endFill=1;rounded=0;exitX=0.998;exitY=0.987;exitDx=0;exitDy=0;exitPerimeter=0;" edge="1" parent="1" source="enoHgNi0ZjV8ggmhb0cH-53">
          <mxGeometry width="100" height="100" relative="1" as="geometry">
            <mxPoint x="230" y="499.5" as="sourcePoint" />
            <mxPoint x="290" y="499.5" as="targetPoint" />
          </mxGeometry>
        </mxCell>
        <mxCell id="enoHgNi0ZjV8ggmhb0cH-119" value="" style="fontSize=12;html=1;endArrow=ERzeroToMany;endFill=1;rounded=0;exitX=0.998;exitY=0.987;exitDx=0;exitDy=0;exitPerimeter=0;" edge="1" parent="1">
          <mxGeometry width="100" height="100" relative="1" as="geometry">
            <mxPoint x="1042" y="500" as="sourcePoint" />
            <mxPoint x="972" y="499.5" as="targetPoint" />
          </mxGeometry>
        </mxCell>
        <mxCell id="enoHgNi0ZjV8ggmhb0cH-120" value="" style="fontSize=12;html=1;endArrow=ERzeroToMany;endFill=1;rounded=0;exitX=0.998;exitY=0.987;exitDx=0;exitDy=0;exitPerimeter=0;" edge="1" parent="1">
          <mxGeometry width="100" height="100" relative="1" as="geometry">
            <mxPoint x="792" y="500" as="sourcePoint" />
            <mxPoint x="722" y="499.5" as="targetPoint" />
          </mxGeometry>
        </mxCell>
        <mxCell id="enoHgNi0ZjV8ggmhb0cH-121" value="" style="fontSize=12;html=1;endArrow=ERzeroToMany;endFill=1;rounded=0;exitX=0.998;exitY=0.987;exitDx=0;exitDy=0;exitPerimeter=0;" edge="1" parent="1">
          <mxGeometry width="100" height="100" relative="1" as="geometry">
            <mxPoint x="470" y="500" as="sourcePoint" />
            <mxPoint x="540" y="499.5" as="targetPoint" />
          </mxGeometry>
        </mxCell>
        <mxCell id="enoHgNi0ZjV8ggmhb0cH-122" value="1: N" style="text;html=1;align=center;verticalAlign=middle;resizable=0;points=[];autosize=1;strokeColor=none;fillColor=none;" vertex="1" parent="1">
          <mxGeometry x="225" y="500" width="50" height="30" as="geometry" />
        </mxCell>
        <mxCell id="enoHgNi0ZjV8ggmhb0cH-123" value="1: N" style="text;html=1;align=center;verticalAlign=middle;resizable=0;points=[];autosize=1;strokeColor=none;fillColor=none;" vertex="1" parent="1">
          <mxGeometry x="475" y="498" width="50" height="30" as="geometry" />
        </mxCell>
        <mxCell id="enoHgNi0ZjV8ggmhb0cH-124" value="N: 1" style="text;html=1;align=center;verticalAlign=middle;resizable=0;points=[];autosize=1;strokeColor=none;fillColor=none;" vertex="1" parent="1">
          <mxGeometry x="730" y="500" width="50" height="30" as="geometry" />
        </mxCell>
        <mxCell id="enoHgNi0ZjV8ggmhb0cH-125" value="N: 1" style="text;html=1;align=center;verticalAlign=middle;resizable=0;points=[];autosize=1;strokeColor=none;fillColor=none;" vertex="1" parent="1">
          <mxGeometry x="985" y="498" width="50" height="30" as="geometry" />
        </mxCell>
      </root>
    </mxGraphModel>
  </diagram>
</mxfile>
